<?xml version="1.0" encoding="UTF-8"?>
<svg version="1.1" xmlns="http://www.w3.org/2000/svg" width="300" height="300">
<path d="M0 0 C0.74372864 0.00087616 1.48745728 0.00175232 2.25372314 0.00265503 C32.73341268 0.12055933 61.46844059 8.84203273 86.5625 26.375 C87.54089844 27.055625 88.51929688 27.73625 89.52734375 28.4375 C122.0492225 52.23595762 142.79864745 86.79008983 149.64453125 126.328125 C150.80864998 134.15543224 150.96033719 141.91921777 150.9375 149.8125 C150.93662384 150.55622864 150.93574768 151.29995728 150.93484497 152.06622314 C150.81694067 182.54591268 142.09546727 211.28094059 124.5625 236.375 C123.881875 237.35339844 123.20125 238.33179688 122.5 239.33984375 C98.70154238 271.8617225 64.14741017 292.61114745 24.609375 299.45703125 C16.78206776 300.62114998 9.01828223 300.77283719 1.125 300.75 C0.00940704 300.74868576 0.00940704 300.74868576 -1.12872314 300.74734497 C-31.60841268 300.62944067 -60.34344059 291.90796727 -85.4375 274.375 C-86.41589844 273.694375 -87.39429688 273.01375 -88.40234375 272.3125 C-120.9242225 248.51404238 -141.67364745 213.95991017 -148.51953125 174.421875 C-149.68364998 166.59456776 -149.83533719 158.83078223 -149.8125 150.9375 C-149.81162384 150.19377136 -149.81074768 149.45004272 -149.80984497 148.68377686 C-149.69194067 118.20408732 -140.97046727 89.46905941 -123.4375 64.375 C-122.756875 63.39660156 -122.07625 62.41820312 -121.375 61.41015625 C-97.57654238 28.8882775 -63.02241017 8.13885255 -23.484375 1.29296875 C-15.65706776 0.12885002 -7.89328223 -0.02283719 0 0 Z " fill="#F9F9F9" transform="translate(149.4375,-0.37499999999999994)"/>
<path d="M0 0 C1.03447266 0.32194336 1.03447266 0.32194336 2.08984375 0.65039062 C7.99979898 2.75786032 10.0517712 6.00943645 12.875 11.4375 C13.31038086 12.17202393 13.74576172 12.90654785 14.19433594 13.66333008 C23.80861831 30.059177 24.08943792 45.03409466 22.875 63.4375 C16.11876389 67.33181017 11.37168033 69.18562332 3.69628906 67.25927734 C2.76526367 66.98809082 1.83423828 66.7169043 0.875 66.4375 C-1.12752657 65.92287504 -3.13013252 65.40855888 -5.1328125 64.89453125 C-8.20666308 64.07391941 -11.27617698 63.24266978 -14.33984375 62.38476562 C-27.1852314 58.99615566 -37.57517147 62.69052976 -50.171875 66.0859375 C-51.3784375 66.40046875 -52.585 66.715 -53.828125 67.0390625 C-54.91770508 67.33119629 -56.00728516 67.62333008 -57.12988281 67.92431641 C-62.03096405 68.76406802 -65.51242045 67.42242487 -69.9375 65.375 C-70.72769531 65.01277344 -71.51789063 64.65054688 -72.33203125 64.27734375 C-73.21955078 63.86162109 -73.21955078 63.86162109 -74.125 63.4375 C-74.41663613 58.91803727 -74.59339117 54.40099508 -74.75 49.875 C-74.87568359 47.95977539 -74.87568359 47.95977539 -75.00390625 46.00585938 C-75.24451724 36.74233607 -75.24451724 36.74233607 -72.18408203 33.17529297 C-69.58453838 31.33262325 -66.96780949 29.87287678 -64.125 28.4375 C-62.58892195 27.49639981 -61.05994057 26.54359652 -59.5390625 25.578125 C-57.94377077 24.61282533 -56.34736825 23.64935957 -54.75 22.6875 C-48.27869413 18.76893046 -41.9696824 14.68410687 -35.78125 10.3359375 C-35.15672943 9.89999268 -34.53220886 9.46404785 -33.88876343 9.01489258 C-30.78570956 6.8481477 -27.69836697 4.66374664 -24.63134766 2.44628906 C-23.48662721 1.64298939 -22.34130907 0.84054058 -21.1953125 0.0390625 C-20.19258301 -0.67942871 -19.18985352 -1.39791992 -18.15673828 -2.13818359 C-12.19478754 -4.93911938 -5.88958265 -2.08751748 0 0 Z " fill="#343434" transform="translate(174.125,107.5625)"/>
<path d="M0 0 C1.0636377 0.20592773 2.12727539 0.41185547 3.22314453 0.62402344 C6.91807214 1.36571147 10.58049124 2.20437009 14.25 3.0625 C16.12945312 3.45598633 16.12945312 3.45598633 18.046875 3.85742188 C28.24099971 6.26981357 28.24099971 6.26981357 31.296875 11.05859375 C33.60520656 15.78342452 34.2116526 19.87031954 34.3125 25.125 C34.36857422 27.01605469 34.36857422 27.01605469 34.42578125 28.9453125 C33.95124105 37.73349429 28.88899978 43.86787873 22.9375 49.875 C22.31294922 50.5246875 21.68839844 51.174375 21.04492188 51.84375 C19.37566175 53.57536242 17.69393781 55.29256152 16 57 C15.55258957 57.51718094 15.10517914 58.03436188 14.64421082 58.56721497 C11.76238044 61.07847653 7.93314338 60.5745863 4.2734375 60.64453125 C3.41118561 60.66400314 2.54893372 60.68347504 1.66055298 60.70353699 C-0.16675548 60.73626142 -1.99424225 60.76006009 -3.82177734 60.77563477 C-6.59676758 60.81212871 -9.36369812 60.91793793 -12.13671875 61.02539062 C-25.08192993 61.29363087 -25.08192993 61.29363087 -30.12866211 57.88989258 C-32.40237762 55.37031945 -34.18666689 52.86165392 -36 50 C-37.41776213 48.33713375 -38.85302874 46.68888164 -40.3125 45.0625 C-44.97474566 39.13465472 -48.01716754 32.47961129 -48.5 24.875 C-47.87644185 20.0424243 -46.29046912 16.26686054 -44 12 C-43.62480225 11.17701416 -43.24960449 10.35402832 -42.86303711 9.50610352 C-40.30672644 6.0674285 -38.14627646 5.75216258 -34.0234375 4.7265625 C-33.33875397 4.5536972 -32.65407043 4.38083191 -31.94863892 4.20272827 C-30.50019911 3.84210522 -29.04926701 3.49136706 -27.59619141 3.14990234 C-25.39655674 2.63009419 -23.20872341 2.07369528 -21.01953125 1.51171875 C-13.80780933 -0.28477453 -7.36063173 -1.70658872 0 0 Z " fill="#383838" transform="translate(155,174)"/>
<path d="M0 0 C1.175625 -0.02191406 2.35125 -0.04382812 3.5625 -0.06640625 C7.75476625 0.70058792 10.156295 2.51180767 13 5.5625 C14.70678711 8.74462891 14.70678711 8.74462891 16.02734375 12.2890625 C16.38440147 13.23330582 16.38440147 13.23330582 16.74867249 14.19662476 C17.24344187 15.5162486 17.72955933 16.83914646 18.20727539 18.16503906 C18.94078335 20.19659369 19.70330949 22.21540763 20.47070312 24.234375 C24.14654611 34.12286168 24.14654611 34.12286168 23 37.5625 C20.72902509 39.26935458 18.47424365 40.82607649 16.08984375 42.359375 C15.37920273 42.82516968 14.66856171 43.29096436 13.93638611 43.77087402 C11.60873645 45.29307609 9.2734036 46.80300065 6.9375 48.3125 C5.33124448 49.3585913 3.72528877 50.40514309 2.11962891 51.45214844 C-8.76138772 58.53230715 -19.72346778 65.47452569 -30.765625 72.30078125 C-36.57982296 75.90193671 -42.3108167 79.62823666 -48.00439453 83.41699219 C-52.78571192 86.5625 -52.78571192 86.5625 -55 86.5625 C-55.09911689 80.69096769 -55.17158611 74.81992587 -55.21972656 68.94775391 C-55.23980169 66.95157382 -55.26706789 64.95545225 -55.30175781 62.95947266 C-55.35045657 60.0848138 -55.37300986 57.2109346 -55.390625 54.3359375 C-55.41127014 53.44820648 -55.43191528 52.56047546 -55.45318604 51.64584351 C-55.45552255 45.14634919 -53.8517497 41.71860246 -49.43530273 36.83081055 C-48.69195679 36.14692261 -48.69195679 36.14692261 -47.93359375 35.44921875 C-47.37148193 34.92835693 -46.80937012 34.40749512 -46.23022461 33.87084961 C-45.63862549 33.33596924 -45.04702637 32.80108887 -44.4375 32.25 C-43.81689697 31.68095947 -43.19629395 31.11191895 -42.55688477 30.52563477 C-38.10334845 26.47483314 -33.50066546 22.64809075 -28.796875 18.890625 C-24.9134933 15.65808939 -21.24119247 12.21332373 -17.58959961 8.72241211 C-12.12275773 3.55933161 -7.86348315 -0.00862224 0 0 Z " fill="#353535" transform="translate(133,62.4375)"/>
<path d="M0 0 C3.45766681 -0.17692076 6.9141471 -0.28170358 10.375 -0.375 C11.34050781 -0.42527344 12.30601562 -0.47554688 13.30078125 -0.52734375 C21.17312883 -0.68584739 25.68312305 1.47489436 32 6 C32.91040039 6.61536621 33.82080078 7.23073242 34.75878906 7.86474609 C37.67258372 9.83958509 40.55702514 11.85192401 43.4375 13.875 C44.39720703 14.54402344 45.35691406 15.21304688 46.34570312 15.90234375 C48.26924639 17.24688106 50.18906061 18.59677012 52.10498047 19.95214844 C54.09697494 21.36122667 56.0964684 22.75974404 58.10205078 24.14941406 C59.09060059 24.84518555 60.07915039 25.54095703 61.09765625 26.2578125 C61.99105713 26.88059082 62.88445801 27.50336914 63.80493164 28.14501953 C66.02410304 30.02036869 67.00358041 31.30019227 68 34 C68.37938598 40.89217859 66.54592917 48.0642175 65.25 54.8125 C65.10546387 55.62468994 64.96092773 56.43687988 64.81201172 57.27368164 C63.68795426 62.78110949 62.35148507 66.30837128 58 70 C55.1454742 70.49175995 52.9251092 70.29746873 50 70 C49.5875 69.1028125 49.175 68.205625 48.75 67.28125 C47.19749829 63.91514196 45.61496134 60.56368069 44.03076172 57.21240234 C43.00613105 55.01315954 42.01928577 52.79964245 41.03515625 50.58203125 C40.37858953 49.15839931 39.72106389 47.73520916 39.0625 46.3125 C38.77568359 45.6421875 38.48886719 44.971875 38.19335938 44.28125 C36.04466571 39.74357864 33.72844625 37.7311854 29.12963867 35.72436523 C27.10328566 35.0351311 25.17527024 34.58292865 23.0703125 34.2109375 C18.43513467 33.32091396 14.55388581 32.24145629 11 29 C6.15656074 21.05182791 3.62098601 11.8718525 1 3 C0.67 2.01 0.34 1.02 0 0 Z " fill="#353535" transform="translate(152,69)"/>
<path d="M0 0 C1.31307739 0.35942887 2.62685188 0.71632357 3.94140625 1.0703125 C5.73384766 1.59238281 5.73384766 1.59238281 7.5625 2.125 C9.38974609 2.65480469 9.38974609 2.65480469 11.25390625 3.1953125 C12.61322266 3.59363281 12.61322266 3.59363281 14 4 C13.67 5.98 13.34 7.96 13 10 C8.69232001 9.52136889 4.83025545 8.66372648 0.6875 7.375 C-7.43243685 5.10897111 -14.23675074 6.38834115 -21.9921875 9.37890625 C-24 10 -24 10 -28 10 C-28.33 8.02 -28.66 6.04 -29 4 C-25.86559051 2.92160043 -22.71653026 1.89443956 -19.5625 0.875 C-18.24475586 0.42060547 -18.24475586 0.42060547 -16.90039062 -0.04296875 C-10.54376364 -2.06020093 -6.31064527 -2.03465545 0 0 Z " fill="#EEEEEE" transform="translate(156,202)"/>
<path d="M0 0 C0.77923828 0.23396484 1.55847656 0.46792969 2.36132812 0.70898438 C4.26307187 1.28067421 6.16298226 1.85845691 8.0625 2.4375 C7.7325 4.4175 7.4025 6.3975 7.0625 8.4375 C6.01191406 8.14875 4.96132812 7.86 3.87890625 7.5625 C-10.32439638 3.75417172 -19.83208559 4.56067444 -33.9375 8.4375 C-34.2675 6.4575 -34.5975 4.4775 -34.9375 2.4375 C-30.46799653 0.66656466 -25.98121832 -0.93190694 -21.375 -2.3125 C-20.50746094 -2.57546875 -19.63992187 -2.8384375 -18.74609375 -3.109375 C-12.30335823 -4.14881494 -6.10855864 -1.86868503 0 0 Z " fill="#F1F1F1" transform="translate(161.9375,188.5625)"/>
<path d="M0 0 C2.64 0 5.28 0 8 0 C9.68460589 3.36921177 9.31092974 7.1109862 9.375 10.8125 C9.41238281 11.62009766 9.44976562 12.42769531 9.48828125 13.25976562 C9.55260631 17.62314903 9.40023555 19.45878802 6.7265625 23.07421875 C4 25 4 25 0 25 C0 16.75 0 8.5 0 0 Z " fill="#404040" transform="translate(203,145)"/>
<path d="M0 0 C0 7.59 0 15.18 0 23 C-6 22 -6 22 -7.8359375 20.33984375 C-10.2261053 15.53544605 -9.94497627 10.18424481 -9 5 C-6.71913871 2.01824904 -3.91587173 0 0 0 Z " fill="#404040" transform="translate(94,147)"/>
<path d="M0 0 C2.5 0.25 2.5 0.25 4.5 2.25 C4.765625 5 4.765625 5 4.75 8.25 C4.75515625 9.3225 4.7603125 10.395 4.765625 11.5 C4.5 14.25 4.5 14.25 2.5 16.25 C0 16.5 0 16.5 -2.5 16.25 C-4.5 14.25 -4.5 14.25 -4.765625 11.5 C-4.76046875 10.4275 -4.7553125 9.355 -4.75 8.25 C-4.75515625 7.1775 -4.7603125 6.105 -4.765625 5 C-4.41531752 1.3732873 -3.66834697 0.3668347 0 0 Z " fill="#EDEDED" transform="translate(171.5,141.75)"/>
<path d="M0 0 C2.375 0.6875 2.375 0.6875 3.375 1.6875 C3.50014928 3.66369447 3.5507276 5.64488173 3.5625 7.625 C3.57667969 8.70652344 3.59085938 9.78804687 3.60546875 10.90234375 C3.375 13.6875 3.375 13.6875 1.375 15.6875 C-1.125 15.9375 -1.125 15.9375 -3.625 15.6875 C-6.32578753 12.98671247 -5.92394358 11.44714828 -5.9375 7.6875 C-5.95425781 6.615 -5.97101563 5.5425 -5.98828125 4.4375 C-5.86839844 3.53 -5.74851562 2.6225 -5.625 1.6875 C-2.625 -0.3125 -2.625 -0.3125 0 0 Z " fill="#EEEEEE" transform="translate(126.625,142.3125)"/>
<path d="M0 0 C0.45356243 6.46326465 -0.40621058 9.60931587 -4 15 C-4.66 15 -5.32 15 -6 15 C-7.33333333 11 -8.66666667 7 -10 3 C-3.375 0 -3.375 0 0 0 Z " fill="#3C3C3C" transform="translate(200,177)"/>
<path d="M0 0 C4.95 1.98 4.95 1.98 10 4 C8.77472971 8.05281712 7.30119506 11.44360764 5 15 C0.05479786 10.21432051 0.05479786 10.21432051 -0.09765625 6.8359375 C-0.06510417 4.55729167 -0.03255208 2.27864583 0 0 Z " fill="#3B3B3B" transform="translate(97,176)"/>
<path d="M0 0 C5.61 0 11.22 0 17 0 C17 1.65 17 3.3 17 5 C11.39 5 5.78 5 0 5 C0 3.35 0 1.7 0 0 Z " fill="#FAFAFA" transform="translate(140,219)"/>
</svg>
